<svg width="64" height="64" viewBox="0 0 64 64" fill="none" xmlns="http://www.w3.org/2000/svg">
<rect width="64" height="64" fill="#E0EAFF"/>
<path d="M32 20.3125C30.591 20.3125 29.2398 20.8722 28.2435 21.8685C27.2472 22.8648 26.6875 24.216 26.6875 25.625C26.6875 27.034 27.2472 28.3852 28.2435 29.3815C29.2398 30.3778 30.591 30.9375 32 30.9375C33.409 30.9375 34.7602 30.3778 35.7565 29.3815C36.7528 28.3852 37.3125 27.034 37.3125 25.625C37.3125 24.216 36.7528 22.8648 35.7565 21.8685C34.7602 20.8722 33.409 20.3125 32 20.3125Z" fill="#427BFF"/>
<path d="M26.3333 33.7708C24.9243 33.7708 23.573 34.3305 22.5767 35.3268C21.5805 36.3231 21.0208 37.6744 21.0208 39.0833V40.7663C21.0208 41.8345 21.7943 42.744 22.8483 42.9154C28.9088 43.9057 35.0911 43.9057 41.1516 42.9154C41.6617 42.8324 42.1256 42.5706 42.4604 42.1768C42.7952 41.7831 42.9791 41.2832 42.9791 40.7663V39.0833C42.9791 37.6744 42.4194 36.3231 41.4231 35.3268C40.4268 34.3305 39.0755 33.7708 37.6666 33.7708H37.1849C36.9228 33.7708 36.6622 33.8133 36.4143 33.8927L35.1874 34.2936C33.1162 34.9697 30.8836 34.9697 28.8124 34.2936L27.5856 33.8927C27.3372 33.8118 27.0776 33.7707 26.8163 33.7708H26.3333Z" fill="#427BFF"/>
</svg>
